<mxfile host="Electron" modified="2023-12-17T20:14:51.263Z" agent="Mozilla/5.0 (Windows NT 10.0; Win64; x64) AppleWebKit/537.36 (KHTML, like Gecko) draw.io/22.1.2 Chrome/114.0.5735.289 Electron/25.9.4 Safari/537.36" etag="rYzmtqmJxZJxyBdubKGo" version="22.1.2" type="device">
  <diagram id="C5RBs43oDa-KdzZeNtuy" name="Page-1">
    <mxGraphModel dx="780" dy="496" grid="1" gridSize="10" guides="1" tooltips="1" connect="1" arrows="1" fold="1" page="1" pageScale="1" pageWidth="827" pageHeight="1169" math="0" shadow="0">
      <root>
        <mxCell id="WIyWlLk6GJQsqaUBKTNV-0" />
        <mxCell id="WIyWlLk6GJQsqaUBKTNV-1" parent="WIyWlLk6GJQsqaUBKTNV-0" />
        <mxCell id="WIyWlLk6GJQsqaUBKTNV-2" value="" style="rounded=0;html=1;jettySize=auto;orthogonalLoop=1;fontSize=11;endArrow=block;endFill=0;endSize=8;strokeWidth=1;shadow=0;labelBackgroundColor=none;edgeStyle=orthogonalEdgeStyle;" parent="WIyWlLk6GJQsqaUBKTNV-1" source="WIyWlLk6GJQsqaUBKTNV-3" target="WIyWlLk6GJQsqaUBKTNV-6" edge="1">
          <mxGeometry relative="1" as="geometry" />
        </mxCell>
        <mxCell id="WIyWlLk6GJQsqaUBKTNV-3" value="page de connexion" style="rounded=1;whiteSpace=wrap;html=1;fontSize=12;glass=0;strokeWidth=1;shadow=0;" parent="WIyWlLk6GJQsqaUBKTNV-1" vertex="1">
          <mxGeometry x="290" y="70" width="120" height="40" as="geometry" />
        </mxCell>
        <mxCell id="WIyWlLk6GJQsqaUBKTNV-4" value="Yes" style="rounded=0;html=1;jettySize=auto;orthogonalLoop=1;fontSize=11;endArrow=block;endFill=0;endSize=8;strokeWidth=1;shadow=0;labelBackgroundColor=none;edgeStyle=orthogonalEdgeStyle;" parent="WIyWlLk6GJQsqaUBKTNV-1" source="WIyWlLk6GJQsqaUBKTNV-6" target="WIyWlLk6GJQsqaUBKTNV-10" edge="1">
          <mxGeometry y="20" relative="1" as="geometry">
            <mxPoint as="offset" />
          </mxGeometry>
        </mxCell>
        <mxCell id="WIyWlLk6GJQsqaUBKTNV-5" value="No" style="edgeStyle=orthogonalEdgeStyle;rounded=0;html=1;jettySize=auto;orthogonalLoop=1;fontSize=11;endArrow=block;endFill=0;endSize=8;strokeWidth=1;shadow=0;labelBackgroundColor=none;" parent="WIyWlLk6GJQsqaUBKTNV-1" source="WIyWlLk6GJQsqaUBKTNV-6" target="WIyWlLk6GJQsqaUBKTNV-7" edge="1">
          <mxGeometry y="10" relative="1" as="geometry">
            <mxPoint as="offset" />
          </mxGeometry>
        </mxCell>
        <mxCell id="WIyWlLk6GJQsqaUBKTNV-6" value="connection d&#39;utilisateur&amp;nbsp;" style="rhombus;whiteSpace=wrap;html=1;shadow=0;fontFamily=Helvetica;fontSize=12;align=center;strokeWidth=1;spacing=6;spacingTop=-4;" parent="WIyWlLk6GJQsqaUBKTNV-1" vertex="1">
          <mxGeometry x="300" y="180" width="100" height="80" as="geometry" />
        </mxCell>
        <mxCell id="fgmK6xfzirgkzzHgXM5b-4" value="" style="edgeStyle=orthogonalEdgeStyle;rounded=0;orthogonalLoop=1;jettySize=auto;html=1;" edge="1" parent="WIyWlLk6GJQsqaUBKTNV-1" source="WIyWlLk6GJQsqaUBKTNV-7" target="fgmK6xfzirgkzzHgXM5b-3">
          <mxGeometry relative="1" as="geometry" />
        </mxCell>
        <mxCell id="WIyWlLk6GJQsqaUBKTNV-7" value="mot de passe ou email incorrect" style="rounded=1;whiteSpace=wrap;html=1;fontSize=12;glass=0;strokeWidth=1;shadow=0;" parent="WIyWlLk6GJQsqaUBKTNV-1" vertex="1">
          <mxGeometry x="510" y="200" width="120" height="40" as="geometry" />
        </mxCell>
        <mxCell id="WIyWlLk6GJQsqaUBKTNV-8" value="YES" style="rounded=0;html=1;jettySize=auto;orthogonalLoop=1;fontSize=11;endArrow=block;endFill=0;endSize=8;strokeWidth=1;shadow=0;labelBackgroundColor=none;edgeStyle=orthogonalEdgeStyle;entryX=0.5;entryY=0;entryDx=0;entryDy=0;" parent="WIyWlLk6GJQsqaUBKTNV-1" source="WIyWlLk6GJQsqaUBKTNV-10" target="fgmK6xfzirgkzzHgXM5b-14" edge="1">
          <mxGeometry x="0.3333" y="20" relative="1" as="geometry">
            <mxPoint as="offset" />
            <mxPoint x="310" y="545" as="targetPoint" />
          </mxGeometry>
        </mxCell>
        <mxCell id="WIyWlLk6GJQsqaUBKTNV-9" value="NO" style="edgeStyle=orthogonalEdgeStyle;rounded=0;html=1;jettySize=auto;orthogonalLoop=1;fontSize=11;endArrow=block;endFill=0;endSize=8;strokeWidth=1;shadow=0;labelBackgroundColor=none;exitX=1;exitY=1;exitDx=0;exitDy=0;entryX=0.5;entryY=0;entryDx=0;entryDy=0;" parent="WIyWlLk6GJQsqaUBKTNV-1" source="WIyWlLk6GJQsqaUBKTNV-10" target="fgmK6xfzirgkzzHgXM5b-9" edge="1">
          <mxGeometry x="0.7386" y="-20" relative="1" as="geometry">
            <mxPoint as="offset" />
            <mxPoint x="510" y="550" as="targetPoint" />
          </mxGeometry>
        </mxCell>
        <mxCell id="WIyWlLk6GJQsqaUBKTNV-10" value="connecter&amp;nbsp;&lt;br&gt;a application&amp;nbsp;" style="rhombus;whiteSpace=wrap;html=1;shadow=0;fontFamily=Helvetica;fontSize=12;align=center;strokeWidth=1;spacing=6;spacingTop=-4;" parent="WIyWlLk6GJQsqaUBKTNV-1" vertex="1">
          <mxGeometry x="300" y="360" width="100" height="80" as="geometry" />
        </mxCell>
        <mxCell id="fgmK6xfzirgkzzHgXM5b-108" style="edgeStyle=orthogonalEdgeStyle;rounded=0;orthogonalLoop=1;jettySize=auto;html=1;exitX=0.5;exitY=1;exitDx=0;exitDy=0;entryX=0;entryY=0.5;entryDx=0;entryDy=0;" edge="1" parent="WIyWlLk6GJQsqaUBKTNV-1" source="WIyWlLk6GJQsqaUBKTNV-12" target="fgmK6xfzirgkzzHgXM5b-88">
          <mxGeometry relative="1" as="geometry" />
        </mxCell>
        <mxCell id="WIyWlLk6GJQsqaUBKTNV-12" value="MEMBRES" style="rounded=1;whiteSpace=wrap;html=1;fontSize=12;glass=0;strokeWidth=1;shadow=0;" parent="WIyWlLk6GJQsqaUBKTNV-1" vertex="1">
          <mxGeometry x="10" y="560" width="120" height="40" as="geometry" />
        </mxCell>
        <mxCell id="fgmK6xfzirgkzzHgXM5b-2" style="edgeStyle=orthogonalEdgeStyle;rounded=0;orthogonalLoop=1;jettySize=auto;html=1;" edge="1" parent="WIyWlLk6GJQsqaUBKTNV-1" source="fgmK6xfzirgkzzHgXM5b-1" target="WIyWlLk6GJQsqaUBKTNV-3">
          <mxGeometry relative="1" as="geometry" />
        </mxCell>
        <mxCell id="fgmK6xfzirgkzzHgXM5b-1" value="" style="shape=waypoint;sketch=0;fillStyle=solid;size=6;pointerEvents=1;points=[];fillColor=none;resizable=0;rotatable=0;perimeter=centerPerimeter;snapToPoint=1;" vertex="1" parent="WIyWlLk6GJQsqaUBKTNV-1">
          <mxGeometry x="340" width="20" height="20" as="geometry" />
        </mxCell>
        <mxCell id="fgmK6xfzirgkzzHgXM5b-8" style="edgeStyle=orthogonalEdgeStyle;rounded=0;orthogonalLoop=1;jettySize=auto;html=1;exitX=0.5;exitY=1;exitDx=0;exitDy=0;entryX=0.5;entryY=0;entryDx=0;entryDy=0;" edge="1" parent="WIyWlLk6GJQsqaUBKTNV-1" source="fgmK6xfzirgkzzHgXM5b-3" target="fgmK6xfzirgkzzHgXM5b-6">
          <mxGeometry relative="1" as="geometry" />
        </mxCell>
        <mxCell id="fgmK6xfzirgkzzHgXM5b-3" value="mot de passe ou email oublier&amp;nbsp;" style="rounded=1;whiteSpace=wrap;html=1;fontSize=12;glass=0;strokeWidth=1;shadow=0;" vertex="1" parent="WIyWlLk6GJQsqaUBKTNV-1">
          <mxGeometry x="700" y="200" width="120" height="40" as="geometry" />
        </mxCell>
        <mxCell id="fgmK6xfzirgkzzHgXM5b-7" style="edgeStyle=orthogonalEdgeStyle;rounded=0;orthogonalLoop=1;jettySize=auto;html=1;exitX=0.5;exitY=1;exitDx=0;exitDy=0;entryX=1;entryY=0;entryDx=0;entryDy=0;" edge="1" parent="WIyWlLk6GJQsqaUBKTNV-1" source="fgmK6xfzirgkzzHgXM5b-6" target="WIyWlLk6GJQsqaUBKTNV-10">
          <mxGeometry relative="1" as="geometry" />
        </mxCell>
        <mxCell id="fgmK6xfzirgkzzHgXM5b-6" value="page de mot de pas ou email oublier" style="rounded=1;whiteSpace=wrap;html=1;fontSize=12;glass=0;strokeWidth=1;shadow=0;" vertex="1" parent="WIyWlLk6GJQsqaUBKTNV-1">
          <mxGeometry x="630" y="280" width="120" height="40" as="geometry" />
        </mxCell>
        <mxCell id="fgmK6xfzirgkzzHgXM5b-77" style="edgeStyle=orthogonalEdgeStyle;rounded=0;orthogonalLoop=1;jettySize=auto;html=1;exitX=0.5;exitY=1;exitDx=0;exitDy=0;entryX=1;entryY=0.5;entryDx=0;entryDy=0;" edge="1" parent="WIyWlLk6GJQsqaUBKTNV-1" source="fgmK6xfzirgkzzHgXM5b-9" target="fgmK6xfzirgkzzHgXM5b-61">
          <mxGeometry relative="1" as="geometry">
            <mxPoint x="610" y="2200" as="targetPoint" />
            <Array as="points">
              <mxPoint x="610" y="1400" />
              <mxPoint x="611" y="1400" />
              <mxPoint x="611" y="2205" />
            </Array>
          </mxGeometry>
        </mxCell>
        <mxCell id="fgmK6xfzirgkzzHgXM5b-9" value="TRESORIER" style="rounded=1;whiteSpace=wrap;html=1;fontSize=12;glass=0;strokeWidth=1;shadow=0;" vertex="1" parent="WIyWlLk6GJQsqaUBKTNV-1">
          <mxGeometry x="550" y="560" width="120" height="40" as="geometry" />
        </mxCell>
        <mxCell id="fgmK6xfzirgkzzHgXM5b-13" value="NO" style="rounded=0;html=1;jettySize=auto;orthogonalLoop=1;fontSize=11;endArrow=block;endFill=0;endSize=8;strokeWidth=1;shadow=0;labelBackgroundColor=none;edgeStyle=orthogonalEdgeStyle;exitX=0;exitY=1;exitDx=0;exitDy=0;entryX=0.5;entryY=0;entryDx=0;entryDy=0;" edge="1" parent="WIyWlLk6GJQsqaUBKTNV-1" source="WIyWlLk6GJQsqaUBKTNV-10" target="WIyWlLk6GJQsqaUBKTNV-12">
          <mxGeometry x="0.7278" y="20" relative="1" as="geometry">
            <mxPoint as="offset" />
            <mxPoint x="330" y="460" as="sourcePoint" />
            <mxPoint x="120" y="550" as="targetPoint" />
          </mxGeometry>
        </mxCell>
        <mxCell id="fgmK6xfzirgkzzHgXM5b-18" value="" style="edgeStyle=orthogonalEdgeStyle;rounded=0;orthogonalLoop=1;jettySize=auto;html=1;" edge="1" parent="WIyWlLk6GJQsqaUBKTNV-1" source="fgmK6xfzirgkzzHgXM5b-14" target="fgmK6xfzirgkzzHgXM5b-17">
          <mxGeometry relative="1" as="geometry" />
        </mxCell>
        <mxCell id="fgmK6xfzirgkzzHgXM5b-14" value="PRESIDENT" style="shape=ext;double=1;rounded=1;whiteSpace=wrap;html=1;" vertex="1" parent="WIyWlLk6GJQsqaUBKTNV-1">
          <mxGeometry x="290" y="560" width="120" height="40" as="geometry" />
        </mxCell>
        <mxCell id="fgmK6xfzirgkzzHgXM5b-42" style="edgeStyle=orthogonalEdgeStyle;rounded=0;orthogonalLoop=1;jettySize=auto;html=1;exitX=0.5;exitY=1;exitDx=0;exitDy=0;entryX=0.5;entryY=0;entryDx=0;entryDy=0;" edge="1" parent="WIyWlLk6GJQsqaUBKTNV-1" source="fgmK6xfzirgkzzHgXM5b-15" target="fgmK6xfzirgkzzHgXM5b-41">
          <mxGeometry relative="1" as="geometry" />
        </mxCell>
        <mxCell id="fgmK6xfzirgkzzHgXM5b-15" value="" style="rhombus;whiteSpace=wrap;html=1;shadow=0;fontFamily=Helvetica;fontSize=12;align=center;strokeWidth=1;spacing=6;spacingTop=-4;fillColor=#00CC00;strokeColor=#82b366;" vertex="1" parent="WIyWlLk6GJQsqaUBKTNV-1">
          <mxGeometry x="220" y="1200" width="40" height="40" as="geometry" />
        </mxCell>
        <mxCell id="fgmK6xfzirgkzzHgXM5b-25" style="edgeStyle=orthogonalEdgeStyle;rounded=0;orthogonalLoop=1;jettySize=auto;html=1;entryX=0.5;entryY=0;entryDx=0;entryDy=0;" edge="1" parent="WIyWlLk6GJQsqaUBKTNV-1" source="fgmK6xfzirgkzzHgXM5b-17" target="fgmK6xfzirgkzzHgXM5b-19">
          <mxGeometry relative="1" as="geometry" />
        </mxCell>
        <mxCell id="fgmK6xfzirgkzzHgXM5b-30" style="edgeStyle=orthogonalEdgeStyle;rounded=0;orthogonalLoop=1;jettySize=auto;html=1;entryX=0.5;entryY=0;entryDx=0;entryDy=0;" edge="1" parent="WIyWlLk6GJQsqaUBKTNV-1" source="fgmK6xfzirgkzzHgXM5b-17" target="fgmK6xfzirgkzzHgXM5b-20">
          <mxGeometry relative="1" as="geometry" />
        </mxCell>
        <mxCell id="fgmK6xfzirgkzzHgXM5b-17" value="GESTION DE L&#39;ASSOCIATION" style="rounded=1;whiteSpace=wrap;html=1;fontSize=12;glass=0;strokeWidth=1;shadow=0;" vertex="1" parent="WIyWlLk6GJQsqaUBKTNV-1">
          <mxGeometry x="300" y="650" width="100" height="30" as="geometry" />
        </mxCell>
        <mxCell id="fgmK6xfzirgkzzHgXM5b-26" style="edgeStyle=orthogonalEdgeStyle;rounded=0;orthogonalLoop=1;jettySize=auto;html=1;exitX=0.5;exitY=1;exitDx=0;exitDy=0;entryX=0.5;entryY=0;entryDx=0;entryDy=0;" edge="1" parent="WIyWlLk6GJQsqaUBKTNV-1" source="fgmK6xfzirgkzzHgXM5b-19" target="fgmK6xfzirgkzzHgXM5b-21">
          <mxGeometry relative="1" as="geometry" />
        </mxCell>
        <mxCell id="fgmK6xfzirgkzzHgXM5b-19" value="GERER LES MEMBRES ?" style="rounded=1;whiteSpace=wrap;html=1;fontSize=12;glass=0;strokeWidth=1;shadow=0;" vertex="1" parent="WIyWlLk6GJQsqaUBKTNV-1">
          <mxGeometry x="190" y="720" width="100" height="30" as="geometry" />
        </mxCell>
        <mxCell id="fgmK6xfzirgkzzHgXM5b-91" style="edgeStyle=orthogonalEdgeStyle;rounded=0;orthogonalLoop=1;jettySize=auto;html=1;exitX=0.75;exitY=1;exitDx=0;exitDy=0;entryX=1;entryY=0.5;entryDx=0;entryDy=0;" edge="1" parent="WIyWlLk6GJQsqaUBKTNV-1" source="fgmK6xfzirgkzzHgXM5b-20" target="fgmK6xfzirgkzzHgXM5b-98">
          <mxGeometry relative="1" as="geometry">
            <mxPoint x="500" y="2721.33349609375" as="targetPoint" />
          </mxGeometry>
        </mxCell>
        <mxCell id="fgmK6xfzirgkzzHgXM5b-20" value="PAS DE GESTION D&#39;ASSOCIATION" style="rounded=1;whiteSpace=wrap;html=1;fontSize=12;glass=0;strokeWidth=1;shadow=0;" vertex="1" parent="WIyWlLk6GJQsqaUBKTNV-1">
          <mxGeometry x="470" y="715" width="110" height="40" as="geometry" />
        </mxCell>
        <mxCell id="fgmK6xfzirgkzzHgXM5b-28" style="edgeStyle=orthogonalEdgeStyle;rounded=0;orthogonalLoop=1;jettySize=auto;html=1;exitX=0.5;exitY=1;exitDx=0;exitDy=0;entryX=0.5;entryY=0;entryDx=0;entryDy=0;" edge="1" parent="WIyWlLk6GJQsqaUBKTNV-1" source="fgmK6xfzirgkzzHgXM5b-21" target="fgmK6xfzirgkzzHgXM5b-22">
          <mxGeometry relative="1" as="geometry" />
        </mxCell>
        <mxCell id="fgmK6xfzirgkzzHgXM5b-21" value="GERER LES ROLES&amp;nbsp;" style="rounded=1;whiteSpace=wrap;html=1;fontSize=12;glass=0;strokeWidth=1;shadow=0;" vertex="1" parent="WIyWlLk6GJQsqaUBKTNV-1">
          <mxGeometry x="190" y="780" width="100" height="30" as="geometry" />
        </mxCell>
        <mxCell id="fgmK6xfzirgkzzHgXM5b-29" style="edgeStyle=orthogonalEdgeStyle;rounded=0;orthogonalLoop=1;jettySize=auto;html=1;exitX=0.5;exitY=1;exitDx=0;exitDy=0;entryX=0.5;entryY=0;entryDx=0;entryDy=0;" edge="1" parent="WIyWlLk6GJQsqaUBKTNV-1" source="fgmK6xfzirgkzzHgXM5b-22" target="fgmK6xfzirgkzzHgXM5b-23">
          <mxGeometry relative="1" as="geometry" />
        </mxCell>
        <mxCell id="fgmK6xfzirgkzzHgXM5b-22" value="GERER LE BUDGET" style="rounded=1;whiteSpace=wrap;html=1;fontSize=12;glass=0;strokeWidth=1;shadow=0;" vertex="1" parent="WIyWlLk6GJQsqaUBKTNV-1">
          <mxGeometry x="190" y="840" width="100" height="30" as="geometry" />
        </mxCell>
        <mxCell id="fgmK6xfzirgkzzHgXM5b-34" style="edgeStyle=orthogonalEdgeStyle;rounded=0;orthogonalLoop=1;jettySize=auto;html=1;exitX=0.5;exitY=1;exitDx=0;exitDy=0;entryX=0.5;entryY=0;entryDx=0;entryDy=0;" edge="1" parent="WIyWlLk6GJQsqaUBKTNV-1" source="fgmK6xfzirgkzzHgXM5b-23" target="fgmK6xfzirgkzzHgXM5b-24">
          <mxGeometry relative="1" as="geometry" />
        </mxCell>
        <mxCell id="fgmK6xfzirgkzzHgXM5b-40" style="edgeStyle=orthogonalEdgeStyle;rounded=0;orthogonalLoop=1;jettySize=auto;html=1;exitX=1;exitY=0.5;exitDx=0;exitDy=0;entryX=1;entryY=0.5;entryDx=0;entryDy=0;" edge="1" parent="WIyWlLk6GJQsqaUBKTNV-1" source="fgmK6xfzirgkzzHgXM5b-23" target="fgmK6xfzirgkzzHgXM5b-15">
          <mxGeometry relative="1" as="geometry">
            <mxPoint x="390" y="1230" as="targetPoint" />
            <Array as="points">
              <mxPoint x="391" y="915" />
              <mxPoint x="391" y="1220" />
            </Array>
          </mxGeometry>
        </mxCell>
        <mxCell id="fgmK6xfzirgkzzHgXM5b-23" value="GESTION DES ACTIVITES" style="rounded=1;whiteSpace=wrap;html=1;fontSize=12;glass=0;strokeWidth=1;shadow=0;" vertex="1" parent="WIyWlLk6GJQsqaUBKTNV-1">
          <mxGeometry x="190" y="900" width="100" height="30" as="geometry" />
        </mxCell>
        <mxCell id="fgmK6xfzirgkzzHgXM5b-35" style="edgeStyle=orthogonalEdgeStyle;rounded=0;orthogonalLoop=1;jettySize=auto;html=1;exitX=0.5;exitY=1;exitDx=0;exitDy=0;entryX=0.5;entryY=0;entryDx=0;entryDy=0;" edge="1" parent="WIyWlLk6GJQsqaUBKTNV-1" source="fgmK6xfzirgkzzHgXM5b-24" target="fgmK6xfzirgkzzHgXM5b-31">
          <mxGeometry relative="1" as="geometry" />
        </mxCell>
        <mxCell id="fgmK6xfzirgkzzHgXM5b-24" value="CREER UNE ACTIVITE" style="rounded=1;whiteSpace=wrap;html=1;fontSize=12;glass=0;strokeWidth=1;shadow=0;" vertex="1" parent="WIyWlLk6GJQsqaUBKTNV-1">
          <mxGeometry x="190" y="960" width="100" height="30" as="geometry" />
        </mxCell>
        <mxCell id="fgmK6xfzirgkzzHgXM5b-36" style="edgeStyle=orthogonalEdgeStyle;rounded=0;orthogonalLoop=1;jettySize=auto;html=1;exitX=0.5;exitY=1;exitDx=0;exitDy=0;entryX=0.5;entryY=0;entryDx=0;entryDy=0;" edge="1" parent="WIyWlLk6GJQsqaUBKTNV-1" source="fgmK6xfzirgkzzHgXM5b-31" target="fgmK6xfzirgkzzHgXM5b-32">
          <mxGeometry relative="1" as="geometry" />
        </mxCell>
        <mxCell id="fgmK6xfzirgkzzHgXM5b-31" value="GERER UNE ACTIVTE" style="rounded=1;whiteSpace=wrap;html=1;fontSize=12;glass=0;strokeWidth=1;shadow=0;" vertex="1" parent="WIyWlLk6GJQsqaUBKTNV-1">
          <mxGeometry x="190" y="1010" width="100" height="30" as="geometry" />
        </mxCell>
        <mxCell id="fgmK6xfzirgkzzHgXM5b-37" style="edgeStyle=orthogonalEdgeStyle;rounded=0;orthogonalLoop=1;jettySize=auto;html=1;exitX=0.5;exitY=1;exitDx=0;exitDy=0;entryX=0.5;entryY=0;entryDx=0;entryDy=0;" edge="1" parent="WIyWlLk6GJQsqaUBKTNV-1" source="fgmK6xfzirgkzzHgXM5b-32" target="fgmK6xfzirgkzzHgXM5b-33">
          <mxGeometry relative="1" as="geometry" />
        </mxCell>
        <mxCell id="fgmK6xfzirgkzzHgXM5b-32" value="DONNER UNE TACHE AU MEMBRE&amp;nbsp;" style="rounded=1;whiteSpace=wrap;html=1;fontSize=12;glass=0;strokeWidth=1;shadow=0;" vertex="1" parent="WIyWlLk6GJQsqaUBKTNV-1">
          <mxGeometry x="190" y="1060" width="110" height="40" as="geometry" />
        </mxCell>
        <mxCell id="fgmK6xfzirgkzzHgXM5b-39" style="edgeStyle=orthogonalEdgeStyle;rounded=0;orthogonalLoop=1;jettySize=auto;html=1;exitX=0.5;exitY=1;exitDx=0;exitDy=0;entryX=0.5;entryY=0;entryDx=0;entryDy=0;" edge="1" parent="WIyWlLk6GJQsqaUBKTNV-1" source="fgmK6xfzirgkzzHgXM5b-33" target="fgmK6xfzirgkzzHgXM5b-15">
          <mxGeometry relative="1" as="geometry" />
        </mxCell>
        <mxCell id="fgmK6xfzirgkzzHgXM5b-33" value="GESTION DE L&#39;ASSOCIATION" style="rounded=1;whiteSpace=wrap;html=1;fontSize=12;glass=0;strokeWidth=1;shadow=0;" vertex="1" parent="WIyWlLk6GJQsqaUBKTNV-1">
          <mxGeometry x="190" y="1120" width="100" height="30" as="geometry" />
        </mxCell>
        <mxCell id="fgmK6xfzirgkzzHgXM5b-48" style="edgeStyle=orthogonalEdgeStyle;rounded=0;orthogonalLoop=1;jettySize=auto;html=1;exitX=1;exitY=0.5;exitDx=0;exitDy=0;entryX=1;entryY=0.5;entryDx=0;entryDy=0;" edge="1" parent="WIyWlLk6GJQsqaUBKTNV-1" source="fgmK6xfzirgkzzHgXM5b-41" target="fgmK6xfzirgkzzHgXM5b-47">
          <mxGeometry relative="1" as="geometry">
            <mxPoint x="390" y="1600" as="targetPoint" />
            <Array as="points">
              <mxPoint x="391" y="1295" />
              <mxPoint x="391" y="1610" />
            </Array>
          </mxGeometry>
        </mxCell>
        <mxCell id="fgmK6xfzirgkzzHgXM5b-49" style="edgeStyle=orthogonalEdgeStyle;rounded=0;orthogonalLoop=1;jettySize=auto;html=1;exitX=0.5;exitY=1;exitDx=0;exitDy=0;entryX=0.5;entryY=0;entryDx=0;entryDy=0;" edge="1" parent="WIyWlLk6GJQsqaUBKTNV-1" source="fgmK6xfzirgkzzHgXM5b-41" target="fgmK6xfzirgkzzHgXM5b-43">
          <mxGeometry relative="1" as="geometry" />
        </mxCell>
        <mxCell id="fgmK6xfzirgkzzHgXM5b-41" value="GESTION DES REUNIONS&amp;nbsp;" style="rounded=1;whiteSpace=wrap;html=1;fontSize=12;glass=0;strokeWidth=1;shadow=0;" vertex="1" parent="WIyWlLk6GJQsqaUBKTNV-1">
          <mxGeometry x="190" y="1280" width="100" height="30" as="geometry" />
        </mxCell>
        <mxCell id="fgmK6xfzirgkzzHgXM5b-50" style="edgeStyle=orthogonalEdgeStyle;rounded=0;orthogonalLoop=1;jettySize=auto;html=1;exitX=0.5;exitY=1;exitDx=0;exitDy=0;entryX=0.5;entryY=0;entryDx=0;entryDy=0;" edge="1" parent="WIyWlLk6GJQsqaUBKTNV-1" source="fgmK6xfzirgkzzHgXM5b-43" target="fgmK6xfzirgkzzHgXM5b-44">
          <mxGeometry relative="1" as="geometry" />
        </mxCell>
        <mxCell id="fgmK6xfzirgkzzHgXM5b-43" value="CALENDRIER DE RENCONTRE" style="rounded=1;whiteSpace=wrap;html=1;fontSize=12;glass=0;strokeWidth=1;shadow=0;" vertex="1" parent="WIyWlLk6GJQsqaUBKTNV-1">
          <mxGeometry x="190" y="1340" width="100" height="30" as="geometry" />
        </mxCell>
        <mxCell id="fgmK6xfzirgkzzHgXM5b-51" style="edgeStyle=orthogonalEdgeStyle;rounded=0;orthogonalLoop=1;jettySize=auto;html=1;exitX=0.5;exitY=1;exitDx=0;exitDy=0;entryX=0.5;entryY=0;entryDx=0;entryDy=0;" edge="1" parent="WIyWlLk6GJQsqaUBKTNV-1" source="fgmK6xfzirgkzzHgXM5b-44" target="fgmK6xfzirgkzzHgXM5b-45">
          <mxGeometry relative="1" as="geometry" />
        </mxCell>
        <mxCell id="fgmK6xfzirgkzzHgXM5b-44" value="CREATION DE REUNION" style="rounded=1;whiteSpace=wrap;html=1;fontSize=12;glass=0;strokeWidth=1;shadow=0;" vertex="1" parent="WIyWlLk6GJQsqaUBKTNV-1">
          <mxGeometry x="190" y="1400" width="100" height="30" as="geometry" />
        </mxCell>
        <mxCell id="fgmK6xfzirgkzzHgXM5b-52" style="edgeStyle=orthogonalEdgeStyle;rounded=0;orthogonalLoop=1;jettySize=auto;html=1;exitX=0.5;exitY=1;exitDx=0;exitDy=0;entryX=0.5;entryY=0;entryDx=0;entryDy=0;" edge="1" parent="WIyWlLk6GJQsqaUBKTNV-1" source="fgmK6xfzirgkzzHgXM5b-45" target="fgmK6xfzirgkzzHgXM5b-46">
          <mxGeometry relative="1" as="geometry" />
        </mxCell>
        <mxCell id="fgmK6xfzirgkzzHgXM5b-45" value="FAIRE DES PROCES VERBEAUX" style="rounded=1;whiteSpace=wrap;html=1;fontSize=12;glass=0;strokeWidth=1;shadow=0;" vertex="1" parent="WIyWlLk6GJQsqaUBKTNV-1">
          <mxGeometry x="190" y="1450" width="100" height="50" as="geometry" />
        </mxCell>
        <mxCell id="fgmK6xfzirgkzzHgXM5b-53" style="edgeStyle=orthogonalEdgeStyle;rounded=0;orthogonalLoop=1;jettySize=auto;html=1;exitX=0.5;exitY=1;exitDx=0;exitDy=0;entryX=0.5;entryY=0;entryDx=0;entryDy=0;" edge="1" parent="WIyWlLk6GJQsqaUBKTNV-1" source="fgmK6xfzirgkzzHgXM5b-46" target="fgmK6xfzirgkzzHgXM5b-47">
          <mxGeometry relative="1" as="geometry" />
        </mxCell>
        <mxCell id="fgmK6xfzirgkzzHgXM5b-46" value="GERER LES DETAILS DE REUNION" style="rounded=1;whiteSpace=wrap;html=1;fontSize=12;glass=0;strokeWidth=1;shadow=0;" vertex="1" parent="WIyWlLk6GJQsqaUBKTNV-1">
          <mxGeometry x="185" y="1520" width="110" height="50" as="geometry" />
        </mxCell>
        <mxCell id="fgmK6xfzirgkzzHgXM5b-62" style="edgeStyle=orthogonalEdgeStyle;rounded=0;orthogonalLoop=1;jettySize=auto;html=1;exitX=0.5;exitY=1;exitDx=0;exitDy=0;entryX=0.5;entryY=0;entryDx=0;entryDy=0;" edge="1" parent="WIyWlLk6GJQsqaUBKTNV-1" source="fgmK6xfzirgkzzHgXM5b-47" target="fgmK6xfzirgkzzHgXM5b-55">
          <mxGeometry relative="1" as="geometry" />
        </mxCell>
        <mxCell id="fgmK6xfzirgkzzHgXM5b-47" value="" style="rhombus;whiteSpace=wrap;html=1;shadow=0;fontFamily=Helvetica;fontSize=12;align=center;strokeWidth=1;spacing=6;spacingTop=-4;fillColor=#00CC00;strokeColor=#82b366;" vertex="1" parent="WIyWlLk6GJQsqaUBKTNV-1">
          <mxGeometry x="220" y="1590" width="40" height="40" as="geometry" />
        </mxCell>
        <mxCell id="fgmK6xfzirgkzzHgXM5b-63" style="edgeStyle=orthogonalEdgeStyle;rounded=0;orthogonalLoop=1;jettySize=auto;html=1;exitX=0.5;exitY=1;exitDx=0;exitDy=0;entryX=0.5;entryY=0;entryDx=0;entryDy=0;" edge="1" parent="WIyWlLk6GJQsqaUBKTNV-1" source="fgmK6xfzirgkzzHgXM5b-55" target="fgmK6xfzirgkzzHgXM5b-56">
          <mxGeometry relative="1" as="geometry" />
        </mxCell>
        <mxCell id="fgmK6xfzirgkzzHgXM5b-73" style="edgeStyle=orthogonalEdgeStyle;rounded=0;orthogonalLoop=1;jettySize=auto;html=1;exitX=1;exitY=0.5;exitDx=0;exitDy=0;entryX=1;entryY=0.5;entryDx=0;entryDy=0;" edge="1" parent="WIyWlLk6GJQsqaUBKTNV-1" source="fgmK6xfzirgkzzHgXM5b-55" target="fgmK6xfzirgkzzHgXM5b-60">
          <mxGeometry relative="1" as="geometry">
            <mxPoint x="320" y="2100" as="targetPoint" />
            <Array as="points">
              <mxPoint x="391" y="1685" />
              <mxPoint x="391" y="2070" />
              <mxPoint x="290" y="2070" />
            </Array>
          </mxGeometry>
        </mxCell>
        <mxCell id="fgmK6xfzirgkzzHgXM5b-55" value="GESTION DU CONSEIL D&#39;ADMINISTRATION&amp;nbsp;" style="rounded=1;whiteSpace=wrap;html=1;fontSize=12;glass=0;strokeWidth=1;shadow=0;" vertex="1" parent="WIyWlLk6GJQsqaUBKTNV-1">
          <mxGeometry x="180" y="1660" width="120" height="50" as="geometry" />
        </mxCell>
        <mxCell id="fgmK6xfzirgkzzHgXM5b-64" style="edgeStyle=orthogonalEdgeStyle;rounded=0;orthogonalLoop=1;jettySize=auto;html=1;exitX=0.5;exitY=1;exitDx=0;exitDy=0;entryX=0.5;entryY=0;entryDx=0;entryDy=0;" edge="1" parent="WIyWlLk6GJQsqaUBKTNV-1" source="fgmK6xfzirgkzzHgXM5b-56" target="fgmK6xfzirgkzzHgXM5b-57">
          <mxGeometry relative="1" as="geometry" />
        </mxCell>
        <mxCell id="fgmK6xfzirgkzzHgXM5b-56" value="AJOUT D &#39;UN MEMBRE DU BUREAU" style="rounded=1;whiteSpace=wrap;html=1;fontSize=12;glass=0;strokeWidth=1;shadow=0;" vertex="1" parent="WIyWlLk6GJQsqaUBKTNV-1">
          <mxGeometry x="185" y="1750" width="110" height="50" as="geometry" />
        </mxCell>
        <mxCell id="fgmK6xfzirgkzzHgXM5b-65" style="edgeStyle=orthogonalEdgeStyle;rounded=0;orthogonalLoop=1;jettySize=auto;html=1;exitX=0.5;exitY=1;exitDx=0;exitDy=0;entryX=0.5;entryY=0;entryDx=0;entryDy=0;" edge="1" parent="WIyWlLk6GJQsqaUBKTNV-1" source="fgmK6xfzirgkzzHgXM5b-57" target="fgmK6xfzirgkzzHgXM5b-58">
          <mxGeometry relative="1" as="geometry" />
        </mxCell>
        <mxCell id="fgmK6xfzirgkzzHgXM5b-57" value="SUPPRIMER UN MEMBRE DU BUREAU" style="rounded=1;whiteSpace=wrap;html=1;fontSize=12;glass=0;strokeWidth=1;shadow=0;" vertex="1" parent="WIyWlLk6GJQsqaUBKTNV-1">
          <mxGeometry x="185" y="1830" width="110" height="50" as="geometry" />
        </mxCell>
        <mxCell id="fgmK6xfzirgkzzHgXM5b-66" style="edgeStyle=orthogonalEdgeStyle;rounded=0;orthogonalLoop=1;jettySize=auto;html=1;exitX=0.5;exitY=1;exitDx=0;exitDy=0;entryX=0.5;entryY=0;entryDx=0;entryDy=0;" edge="1" parent="WIyWlLk6GJQsqaUBKTNV-1" source="fgmK6xfzirgkzzHgXM5b-58" target="fgmK6xfzirgkzzHgXM5b-59">
          <mxGeometry relative="1" as="geometry" />
        </mxCell>
        <mxCell id="fgmK6xfzirgkzzHgXM5b-58" value="GESTION DES REUNIONS&amp;nbsp;" style="rounded=1;whiteSpace=wrap;html=1;fontSize=12;glass=0;strokeWidth=1;shadow=0;" vertex="1" parent="WIyWlLk6GJQsqaUBKTNV-1">
          <mxGeometry x="190" y="1910" width="100" height="30" as="geometry" />
        </mxCell>
        <mxCell id="fgmK6xfzirgkzzHgXM5b-67" style="edgeStyle=orthogonalEdgeStyle;rounded=0;orthogonalLoop=1;jettySize=auto;html=1;exitX=0.5;exitY=1;exitDx=0;exitDy=0;entryX=0.5;entryY=0;entryDx=0;entryDy=0;" edge="1" parent="WIyWlLk6GJQsqaUBKTNV-1" source="fgmK6xfzirgkzzHgXM5b-59" target="fgmK6xfzirgkzzHgXM5b-60">
          <mxGeometry relative="1" as="geometry" />
        </mxCell>
        <mxCell id="fgmK6xfzirgkzzHgXM5b-59" value="ASSIGNER UN ROLE" style="rounded=1;whiteSpace=wrap;html=1;fontSize=12;glass=0;strokeWidth=1;shadow=0;" vertex="1" parent="WIyWlLk6GJQsqaUBKTNV-1">
          <mxGeometry x="190" y="1980" width="100" height="30" as="geometry" />
        </mxCell>
        <mxCell id="fgmK6xfzirgkzzHgXM5b-72" style="edgeStyle=orthogonalEdgeStyle;rounded=0;orthogonalLoop=1;jettySize=auto;html=1;exitX=0.5;exitY=1;exitDx=0;exitDy=0;entryX=0.5;entryY=0;entryDx=0;entryDy=0;" edge="1" parent="WIyWlLk6GJQsqaUBKTNV-1" source="fgmK6xfzirgkzzHgXM5b-60" target="fgmK6xfzirgkzzHgXM5b-71">
          <mxGeometry relative="1" as="geometry" />
        </mxCell>
        <mxCell id="fgmK6xfzirgkzzHgXM5b-60" value="PRENDRE DES DECISIONS" style="rounded=1;whiteSpace=wrap;html=1;fontSize=12;glass=0;strokeWidth=1;shadow=0;" vertex="1" parent="WIyWlLk6GJQsqaUBKTNV-1">
          <mxGeometry x="190" y="2050" width="100" height="30" as="geometry" />
        </mxCell>
        <mxCell id="fgmK6xfzirgkzzHgXM5b-82" style="edgeStyle=orthogonalEdgeStyle;rounded=0;orthogonalLoop=1;jettySize=auto;html=1;exitX=0.5;exitY=1;exitDx=0;exitDy=0;entryX=0.5;entryY=0;entryDx=0;entryDy=0;" edge="1" parent="WIyWlLk6GJQsqaUBKTNV-1" source="fgmK6xfzirgkzzHgXM5b-61" target="fgmK6xfzirgkzzHgXM5b-74">
          <mxGeometry relative="1" as="geometry" />
        </mxCell>
        <mxCell id="fgmK6xfzirgkzzHgXM5b-86" style="edgeStyle=orthogonalEdgeStyle;rounded=0;orthogonalLoop=1;jettySize=auto;html=1;exitX=0;exitY=0.5;exitDx=0;exitDy=0;entryX=0;entryY=0.5;entryDx=0;entryDy=0;" edge="1" parent="WIyWlLk6GJQsqaUBKTNV-1" source="fgmK6xfzirgkzzHgXM5b-61" target="fgmK6xfzirgkzzHgXM5b-84">
          <mxGeometry relative="1" as="geometry">
            <mxPoint x="120" y="2410" as="targetPoint" />
            <Array as="points">
              <mxPoint x="110" y="2205" />
              <mxPoint x="110" y="2410" />
            </Array>
          </mxGeometry>
        </mxCell>
        <mxCell id="fgmK6xfzirgkzzHgXM5b-61" value="GESTION DE LA&amp;nbsp; TRESORIE" style="rounded=1;whiteSpace=wrap;html=1;fontSize=12;glass=0;strokeWidth=1;shadow=0;" vertex="1" parent="WIyWlLk6GJQsqaUBKTNV-1">
          <mxGeometry x="190" y="2190" width="100" height="30" as="geometry" />
        </mxCell>
        <mxCell id="fgmK6xfzirgkzzHgXM5b-81" style="edgeStyle=orthogonalEdgeStyle;rounded=0;orthogonalLoop=1;jettySize=auto;html=1;exitX=0.5;exitY=1;exitDx=0;exitDy=0;entryX=0.5;entryY=0;entryDx=0;entryDy=0;" edge="1" parent="WIyWlLk6GJQsqaUBKTNV-1" source="fgmK6xfzirgkzzHgXM5b-71" target="fgmK6xfzirgkzzHgXM5b-61">
          <mxGeometry relative="1" as="geometry" />
        </mxCell>
        <mxCell id="fgmK6xfzirgkzzHgXM5b-71" value="" style="rhombus;whiteSpace=wrap;html=1;shadow=0;fontFamily=Helvetica;fontSize=12;align=center;strokeWidth=1;spacing=6;spacingTop=-4;fillColor=#00CC00;strokeColor=#82b366;" vertex="1" parent="WIyWlLk6GJQsqaUBKTNV-1">
          <mxGeometry x="220" y="2120" width="40" height="40" as="geometry" />
        </mxCell>
        <mxCell id="fgmK6xfzirgkzzHgXM5b-83" style="edgeStyle=orthogonalEdgeStyle;rounded=0;orthogonalLoop=1;jettySize=auto;html=1;exitX=0.5;exitY=1;exitDx=0;exitDy=0;entryX=0.5;entryY=0;entryDx=0;entryDy=0;" edge="1" parent="WIyWlLk6GJQsqaUBKTNV-1" source="fgmK6xfzirgkzzHgXM5b-74" target="fgmK6xfzirgkzzHgXM5b-75">
          <mxGeometry relative="1" as="geometry" />
        </mxCell>
        <mxCell id="fgmK6xfzirgkzzHgXM5b-74" value="ENREGISTREMENT DES COTISATIONS" style="rounded=1;whiteSpace=wrap;html=1;fontSize=12;glass=0;strokeWidth=1;shadow=0;" vertex="1" parent="WIyWlLk6GJQsqaUBKTNV-1">
          <mxGeometry x="185" y="2250" width="110" height="40" as="geometry" />
        </mxCell>
        <mxCell id="fgmK6xfzirgkzzHgXM5b-85" style="edgeStyle=orthogonalEdgeStyle;rounded=0;orthogonalLoop=1;jettySize=auto;html=1;exitX=0.5;exitY=1;exitDx=0;exitDy=0;entryX=0.5;entryY=0;entryDx=0;entryDy=0;" edge="1" parent="WIyWlLk6GJQsqaUBKTNV-1" source="fgmK6xfzirgkzzHgXM5b-75" target="fgmK6xfzirgkzzHgXM5b-84">
          <mxGeometry relative="1" as="geometry" />
        </mxCell>
        <mxCell id="fgmK6xfzirgkzzHgXM5b-75" value="SUIVIS DES TRANSCATIONS" style="rounded=1;whiteSpace=wrap;html=1;fontSize=12;glass=0;strokeWidth=1;shadow=0;" vertex="1" parent="WIyWlLk6GJQsqaUBKTNV-1">
          <mxGeometry x="190" y="2330" width="100" height="30" as="geometry" />
        </mxCell>
        <mxCell id="fgmK6xfzirgkzzHgXM5b-89" style="edgeStyle=orthogonalEdgeStyle;rounded=0;orthogonalLoop=1;jettySize=auto;html=1;exitX=0.5;exitY=1;exitDx=0;exitDy=0;entryX=0.5;entryY=0;entryDx=0;entryDy=0;" edge="1" parent="WIyWlLk6GJQsqaUBKTNV-1" source="fgmK6xfzirgkzzHgXM5b-84" target="fgmK6xfzirgkzzHgXM5b-88">
          <mxGeometry relative="1" as="geometry" />
        </mxCell>
        <mxCell id="fgmK6xfzirgkzzHgXM5b-84" value="" style="rhombus;whiteSpace=wrap;html=1;shadow=0;fontFamily=Helvetica;fontSize=12;align=center;strokeWidth=1;spacing=6;spacingTop=-4;fillColor=#00CC00;strokeColor=#82b366;" vertex="1" parent="WIyWlLk6GJQsqaUBKTNV-1">
          <mxGeometry x="220" y="2390" width="40" height="40" as="geometry" />
        </mxCell>
        <mxCell id="fgmK6xfzirgkzzHgXM5b-97" style="edgeStyle=orthogonalEdgeStyle;rounded=0;orthogonalLoop=1;jettySize=auto;html=1;exitX=1;exitY=0.5;exitDx=0;exitDy=0;entryX=1;entryY=0.5;entryDx=0;entryDy=0;" edge="1" parent="WIyWlLk6GJQsqaUBKTNV-1" source="fgmK6xfzirgkzzHgXM5b-88" target="fgmK6xfzirgkzzHgXM5b-96">
          <mxGeometry relative="1" as="geometry">
            <Array as="points">
              <mxPoint x="380" y="2495" />
              <mxPoint x="380" y="2820" />
            </Array>
          </mxGeometry>
        </mxCell>
        <mxCell id="fgmK6xfzirgkzzHgXM5b-103" style="edgeStyle=orthogonalEdgeStyle;rounded=0;orthogonalLoop=1;jettySize=auto;html=1;exitX=0.5;exitY=1;exitDx=0;exitDy=0;entryX=0.5;entryY=0;entryDx=0;entryDy=0;" edge="1" parent="WIyWlLk6GJQsqaUBKTNV-1" source="fgmK6xfzirgkzzHgXM5b-88" target="fgmK6xfzirgkzzHgXM5b-92">
          <mxGeometry relative="1" as="geometry" />
        </mxCell>
        <mxCell id="fgmK6xfzirgkzzHgXM5b-88" value="CONNEXION D&#39;UN MEMBRE" style="rounded=1;whiteSpace=wrap;html=1;fontSize=12;glass=0;strokeWidth=1;shadow=0;" vertex="1" parent="WIyWlLk6GJQsqaUBKTNV-1">
          <mxGeometry x="190" y="2480" width="100" height="30" as="geometry" />
        </mxCell>
        <mxCell id="fgmK6xfzirgkzzHgXM5b-90" style="edgeStyle=orthogonalEdgeStyle;rounded=0;orthogonalLoop=1;jettySize=auto;html=1;exitX=0.5;exitY=1;exitDx=0;exitDy=0;" edge="1" parent="WIyWlLk6GJQsqaUBKTNV-1" source="fgmK6xfzirgkzzHgXM5b-88" target="fgmK6xfzirgkzzHgXM5b-88">
          <mxGeometry relative="1" as="geometry" />
        </mxCell>
        <mxCell id="fgmK6xfzirgkzzHgXM5b-92" value="PAGE ACCEUIL MEMBRE" style="rounded=1;whiteSpace=wrap;html=1;fontSize=12;glass=0;strokeWidth=1;shadow=0;" vertex="1" parent="WIyWlLk6GJQsqaUBKTNV-1">
          <mxGeometry x="190" y="2560" width="100" height="30" as="geometry" />
        </mxCell>
        <mxCell id="fgmK6xfzirgkzzHgXM5b-93" value="PAGE DES TACHES&amp;nbsp;" style="rounded=1;whiteSpace=wrap;html=1;fontSize=12;glass=0;strokeWidth=1;shadow=0;" vertex="1" parent="WIyWlLk6GJQsqaUBKTNV-1">
          <mxGeometry x="195" y="2620" width="100" height="30" as="geometry" />
        </mxCell>
        <mxCell id="fgmK6xfzirgkzzHgXM5b-106" style="edgeStyle=orthogonalEdgeStyle;rounded=0;orthogonalLoop=1;jettySize=auto;html=1;exitX=0.5;exitY=1;exitDx=0;exitDy=0;entryX=0.5;entryY=0;entryDx=0;entryDy=0;" edge="1" parent="WIyWlLk6GJQsqaUBKTNV-1" source="fgmK6xfzirgkzzHgXM5b-94" target="fgmK6xfzirgkzzHgXM5b-95">
          <mxGeometry relative="1" as="geometry" />
        </mxCell>
        <mxCell id="fgmK6xfzirgkzzHgXM5b-94" value="PAGE DE ACTIVITES&amp;nbsp;" style="rounded=1;whiteSpace=wrap;html=1;fontSize=12;glass=0;strokeWidth=1;shadow=0;" vertex="1" parent="WIyWlLk6GJQsqaUBKTNV-1">
          <mxGeometry x="195" y="2680" width="100" height="30" as="geometry" />
        </mxCell>
        <mxCell id="fgmK6xfzirgkzzHgXM5b-107" style="edgeStyle=orthogonalEdgeStyle;rounded=0;orthogonalLoop=1;jettySize=auto;html=1;exitX=0.5;exitY=1;exitDx=0;exitDy=0;entryX=0.5;entryY=0;entryDx=0;entryDy=0;" edge="1" parent="WIyWlLk6GJQsqaUBKTNV-1" source="fgmK6xfzirgkzzHgXM5b-95" target="fgmK6xfzirgkzzHgXM5b-96">
          <mxGeometry relative="1" as="geometry" />
        </mxCell>
        <mxCell id="fgmK6xfzirgkzzHgXM5b-95" value="PAGES DES DONS&amp;nbsp;" style="rounded=1;whiteSpace=wrap;html=1;fontSize=12;glass=0;strokeWidth=1;shadow=0;" vertex="1" parent="WIyWlLk6GJQsqaUBKTNV-1">
          <mxGeometry x="195" y="2740" width="100" height="30" as="geometry" />
        </mxCell>
        <mxCell id="fgmK6xfzirgkzzHgXM5b-99" style="edgeStyle=orthogonalEdgeStyle;rounded=0;orthogonalLoop=1;jettySize=auto;html=1;exitX=0.5;exitY=1;exitDx=0;exitDy=0;entryX=0;entryY=0.5;entryDx=0;entryDy=0;" edge="1" parent="WIyWlLk6GJQsqaUBKTNV-1" source="fgmK6xfzirgkzzHgXM5b-96" target="fgmK6xfzirgkzzHgXM5b-98">
          <mxGeometry relative="1" as="geometry" />
        </mxCell>
        <mxCell id="fgmK6xfzirgkzzHgXM5b-96" value="" style="rhombus;whiteSpace=wrap;html=1;shadow=0;fontFamily=Helvetica;fontSize=12;align=center;strokeWidth=1;spacing=6;spacingTop=-4;fillColor=#00CC00;strokeColor=#82b366;" vertex="1" parent="WIyWlLk6GJQsqaUBKTNV-1">
          <mxGeometry x="225" y="2800" width="40" height="40" as="geometry" />
        </mxCell>
        <mxCell id="fgmK6xfzirgkzzHgXM5b-98" value="" style="rhombus;whiteSpace=wrap;html=1;shadow=0;fontFamily=Helvetica;fontSize=12;align=center;strokeWidth=1;spacing=6;spacingTop=-4;fillColor=#00CC00;strokeColor=#82b366;" vertex="1" parent="WIyWlLk6GJQsqaUBKTNV-1">
          <mxGeometry x="440" y="2883" width="40" height="40" as="geometry" />
        </mxCell>
        <mxCell id="fgmK6xfzirgkzzHgXM5b-100" value="" style="shape=waypoint;sketch=0;fillStyle=solid;size=6;pointerEvents=1;points=[];fillColor=none;resizable=0;rotatable=0;perimeter=centerPerimeter;snapToPoint=1;" vertex="1" parent="WIyWlLk6GJQsqaUBKTNV-1">
          <mxGeometry x="450" y="2970" width="20" height="20" as="geometry" />
        </mxCell>
        <mxCell id="fgmK6xfzirgkzzHgXM5b-101" style="edgeStyle=orthogonalEdgeStyle;rounded=0;orthogonalLoop=1;jettySize=auto;html=1;exitX=0.5;exitY=1;exitDx=0;exitDy=0;entryX=0.767;entryY=0.15;entryDx=0;entryDy=0;entryPerimeter=0;" edge="1" parent="WIyWlLk6GJQsqaUBKTNV-1" source="fgmK6xfzirgkzzHgXM5b-98" target="fgmK6xfzirgkzzHgXM5b-100">
          <mxGeometry relative="1" as="geometry" />
        </mxCell>
        <mxCell id="fgmK6xfzirgkzzHgXM5b-104" style="edgeStyle=orthogonalEdgeStyle;rounded=0;orthogonalLoop=1;jettySize=auto;html=1;exitX=0.5;exitY=1;exitDx=0;exitDy=0;entryX=0.437;entryY=0.078;entryDx=0;entryDy=0;entryPerimeter=0;" edge="1" parent="WIyWlLk6GJQsqaUBKTNV-1" source="fgmK6xfzirgkzzHgXM5b-92" target="fgmK6xfzirgkzzHgXM5b-93">
          <mxGeometry relative="1" as="geometry" />
        </mxCell>
        <mxCell id="fgmK6xfzirgkzzHgXM5b-105" style="edgeStyle=orthogonalEdgeStyle;rounded=0;orthogonalLoop=1;jettySize=auto;html=1;exitX=0.5;exitY=1;exitDx=0;exitDy=0;entryX=0.583;entryY=0.011;entryDx=0;entryDy=0;entryPerimeter=0;" edge="1" parent="WIyWlLk6GJQsqaUBKTNV-1" source="fgmK6xfzirgkzzHgXM5b-93" target="fgmK6xfzirgkzzHgXM5b-94">
          <mxGeometry relative="1" as="geometry" />
        </mxCell>
      </root>
    </mxGraphModel>
  </diagram>
</mxfile>
